<?xml version="1.0" encoding="UTF-8" standalone="no"?>
<svg xmlns:sketch="http://www.bohemiancoding.com/sketch/ns" xmlns="http://www.w3.org/2000/svg" height="132px" width="252px" version="1.1" xmlns:xlink="http://www.w3.org/1999/xlink" viewBox="0 0 252 132"><!-- Generator: Sketch 3.3.1 (12005) - http://www.bohemiancoding.com/sketch -->
 <title>icons</title>
 <desc>Created with Sketch.</desc>
 <g id="Welcome" fill-rule="evenodd" sketch:type="MSPage" fill="none">
  <g id="Home-Page-Copy-2" transform="translate(-159 -1159)" sketch:type="MSArtboardGroup">
   <g id="Group" transform="translate(127 1063)" sketch:type="MSLayerGroup">
    <g id="+" font-size="36" font-weight="bold" sketch:type="MSTextLayer" transform="translate(144 141)" font-family="Lucida Grande" fill="#4D4B4B">
     <text>
      <tspan y="35.2886076" x="0.434782609">+</tspan>
     </text>
    </g>
    <g id="celebration11-copy" sketch:type="MSShapeGroup" stroke="#000" stroke-width="2" transform="translate(174 122)">
     <g id="icons_24_">
      <g id="Group">
       <g id="Shape">
        <path d="m24.363 16v0.001c0.004-0.001 0.008-0.002 0.013-0.003 0.004 0 0.008 0 0.012-0.001v-0.001c4.46-0.723 7.462-4.493 6.725-8.4878-0.737-3.9943-4.936-6.713-9.421-6.1311v-0.0009c-0.004 0.0006-0.008 0.0015-0.013 0.0023-0.004 0.0005-0.008 0.0007-0.013 0.0015l0.001 0.0008c-4.459 0.7238-7.461 4.4931-6.725 8.4874 0.737 3.9948 4.936 6.7138 9.421 6.1318z"/>
        <path d="m54.957 61.735l-16.096-14.511c-1.106-1.177-4.086-17.862-4.214-18.555-0.328-1.776 0.239-2.903 0.239-2.903s8.089-18.488 8.909-20.524c0.82-2.0351 0.773-3.3664-0.808-4.3769-1.582-1.0108-4.281-1.0409-4.921 0.7183l-8.667 18.499s-2.209-0.716-4.65-0.397c-0.02 0.003-0.04 0.006-0.06 0.01-0.021 0.003-0.041 0.004-0.062 0.007-2.426 0.392-4.262 1.699-4.262 1.699l-14.858-15.066c-1.7533-1.5234-3.7852-0.6889-4.9216 0.7187-1.1344 1.4067-0.4869 2.9933 0.8073 4.3773s15.815 16.916 15.815 16.916 0.941 0.907 1.268 2.682c0.026 0.141 0.034 0.182 3.147 17.055l2.088 28.548c0.136 1.861 1.876 3.29 3.943 3.29 0.087 0 0.174-0.003 0.261-0.008 2.18-0.126 3.832-1.8 3.69-3.739 0 0-1.882-24.824-1.882-25.736 0-0.561 0.613-0.88 1.337-0.228 0.723 0.652 18.266 16.467 18.266 16.467 1.535 1.383 4.039 1.398 5.594 0.033s1.571-3.593 0.037-4.976z"/>
       </g>
       <g id="Shape" transform="translate(46.899 11.619)">
        <path d="m32.209 13.251h-0.001c0.004 0.002 0.007 0.002 0.01 0.003 0.004 0.001 0.006 0.002 0.009 0.003h0.001c0.028 0.008 0.057 0.014 0.085 0.022 0.027 0.009 0.054 0.02 0.083 0.029h-0.001c0.004 0.001 0.006 0.002 0.01 0.003 0.003 0.001 0.006 0.002 0.009 0.003 3.357 0.964 6.975-0.637 8.124-3.6174 1.148-2.9796-0.605-6.2183-3.921-7.2882v-0.0006c-0.003-0.0011-0.006-0.0019-0.01-0.0027-0.003-0.0009-0.006-0.0021-0.009-0.0032v0.0006c-0.029-0.008-0.057-0.0147-0.085-0.0223-0.028-0.0093-0.055-0.0196-0.083-0.0288l0.001-0.0005c-0.004-0.0012-0.007-0.0016-0.01-0.0027-0.003-0.0008-0.006-0.0021-0.01-0.0031v0.0006c-3.356-0.9642-6.974 0.6368-8.122 3.6162-1.149 2.9794 0.604 6.2191 3.92 7.2891z"/>
        <path d="m58.89 15.637c-0.341-1.314-1.774-1.887-4.363-1.408l-19.428 1.86s-0.907-0.962-3.231-1.671c-2.324-0.708-3.694-0.44-3.694-0.44l-14.059-12.071c-1.714-1.7914-3.242-2.1209-4.4169-1.2693-1.4142 1.0248-1.675 2.6455-0.8469 3.5602 1.2488 1.3792 13.828 12.85 14.284 13.507 0.455 0.657 0.27 0.93-0.241 2.255-0.217 0.562-3.561 8.851-4.829 11.924l-16.61 9.956c-1.4496 0.869-1.8327 2.618-0.85628 3.907 0.97648 1.29 2.9431 1.631 4.3925 0.762 0 0 17.517-10.471 17.941-10.754s0.992-0.105 0.8 0.432c-0.191 0.537-7.517 21.118-7.517 21.118-0.527 1.482 0.396 3.064 2.062 3.533 0.318 0.09 0.639 0.132 0.956 0.132 1.343 0 2.589-0.766 3.016-1.965l8.268-23.228c0.035-0.098 0.061-0.197 0.084-0.296l4.542-11.786c0.511-1.325 0.552-1.641 1.365-1.912 0.813-0.27 18.658-2.464 20.596-2.872 1.284-0.271 2.196-1.693 1.786-3.274z"/>
       </g>
      </g>
     </g>
    </g>
    <g id="climbing3-copy" sketch:type="MSShapeGroup" stroke="#000" stroke-width="2" transform="translate(46 122)">
     <g id="Group">
      <path id="Shape" d="m4.02 79.814c1.9607 0.306 3.8214-0.676 4.7159-2.296l7.7891-16.423c0.167-0.377 0.314-0.777 0.364-1.218 0.021-0.195 0.043-0.422 0.043-0.616l-0.053-12.474 11.962 5.143 1.939 12.189c0.384 1.781 1.864 3.208 3.797 3.503 2.519 0.36 4.864-1.344 5.25-3.801 0.062-0.421 0.062-0.842 0.019-1.24l-2.361-14.718c-0.284-1.415-1.24-2.645-2.586-3.261l-10.691-4.685 6.813-11.675 3.37 4.224c0.344 0.378 0.792 0.707 1.302 0.901l12.868 3.709c1.719 0.36 3.471-0.519 4.131-2.139 0.751-1.849-0.145-3.927-1.985-4.676l-0.189-0.051-11.181-3.247-6.216-7.35c-1.218-1.44-3.6-3.26-5.317-4.064l-2.818-1.321c-0.637-0.299-1.343-0.397-2.032-0.324-1.756-0.1-10.294-0.215-14.024 6.704-4.1677 7.727-1.4886 17.004-1.4886 17.004-0.0052 0.114-0.0275 0.224-0.0275 0.339l0.3342 20.18-7.0793 15.015c-0.2515 0.443-0.42736 0.964-0.51006 1.508-0.38577 2.485 1.3424 4.777 3.8613 5.16z"/>
      <path id="Shape" d="m52.37 59.975l-3.852 2.17c-1.823 0.541-3.483 2.332-3.705 3.998-0.224 1.665-1.904 3.377-3.754 3.821l-15.45 3.703c-1.849 0.445-3.3 1.642-3.238 2.675 0.061 1.033 1.653 1.873 3.555 1.873h50.554c1.917 0 3.463-1.52 3.463-3.406l-0.064-68.274c-0.002-1.8721-1.506-3.7362-3.358-4.1637l-0.689-0.1579c-1.852-0.4257-3.691 0.7108-4.102 2.5392l-2.757 12.216c-0.412 1.828-2.17 3.901-3.923 4.629l-0.747 0.309c-1.755 0.727-3.697 2.746-4.336 4.512l-3.989 10.986c-0.639 1.766-0.534 4.583 0.238 6.297l-0.253 7.09c0.77 1.713 1.018 4.244 0.552 5.652s-2.322 2.99-4.145 3.531z"/>
      <path id="Shape" d="m30.183 13.58c3.8 0 6.892-3.045 6.892-6.7986 0-3.7386-3.092-6.7814-6.892-6.7814-3.8-8.8818e-16 -6.891 3.043-6.891 6.7814 0 3.7536 3.091 6.7986 6.891 6.7986z"/>
     </g>
    </g>
   </g>
  </g>
 </g>
</svg>
